<svg width="32" height="32" viewBox="0 0 32 32" fill="none" xmlns="http://www.w3.org/2000/svg">
<mask id="mask0_2016_5" style="mask-type:alpha" maskUnits="userSpaceOnUse" x="2" y="2" width="28" height="27">
<path d="M15.2407 2.36566C15.7205 2.13459 16.2795 2.13459 16.7593 2.36566L26.1863 6.90549C26.6662 7.13656 27.0147 7.57355 27.1332 8.09277L29.4615 18.2937C29.58 18.8129 29.4556 19.3578 29.1235 19.7742L22.5998 27.9547C22.2678 28.371 21.7642 28.6136 21.2316 28.6136H10.7684C10.2358 28.6136 9.73223 28.371 9.40018 27.9547L2.87646 19.7742C2.54441 19.3578 2.42003 18.8129 2.53854 18.2937L4.86683 8.09277C4.98534 7.57355 5.33383 7.13656 5.81366 6.90549L15.2407 2.36566Z" fill="#FF0000"/>
</mask>
<g mask="url(#mask0_2016_5)">
<path fill-rule="evenodd" clip-rule="evenodd" d="M26.9457 7.27115L16 2.00001L5.05437 7.27115L20.8713 14.8882L26.9457 7.27115Z" fill="#3399FF"/>
<path d="M2.35102 19.1153L9.92564 28.6136L20.8713 14.8882L5.05437 7.27115L2.35102 19.1153Z" fill="#2B82D9"/>
<path d="M29.649 19.1153L26.9457 7.27115L20.8713 14.8882L29.649 19.1153Z" fill="#246BB3"/>
<path d="M22.0744 28.6136L29.649 19.1153L20.8713 14.8882L9.92564 28.6136H22.0744Z" fill="#1C548C"/>
</g>
</svg>
