<svg width="1000" height="1000" viewBox="0 0 1000 1000" fill="none" xmlns="http://www.w3.org/2000/svg">
<path d="M155.697 428.67C136.037 428.67 119.694 422.771 106.669 410.975C93.8896 399.179 87.5 384.065 87.5 365.633C87.5 347.448 93.8896 332.456 106.669 320.66C119.694 308.864 136.037 302.966 155.697 302.966C175.357 302.966 191.577 308.864 204.357 320.66C217.136 332.456 223.525 347.448 223.525 365.633C223.525 384.065 217.136 399.179 204.357 410.975C191.577 422.771 175.357 428.67 155.697 428.67ZM155.697 697.034C136.037 697.034 119.694 691.136 106.669 679.34C93.8896 667.544 87.5 652.43 87.5 633.998C87.5 615.812 93.8896 600.821 106.669 589.025C119.694 576.983 136.037 570.962 155.697 570.962C175.357 570.962 191.577 576.983 204.357 589.025C217.136 600.821 223.525 615.812 223.525 633.998C223.525 652.43 217.136 667.544 204.357 679.34C191.577 691.136 175.357 697.034 155.697 697.034Z" fill="#519ABA"/>
<path d="M362.131 428.67C342.471 428.67 326.128 422.771 313.103 410.975C300.324 399.179 293.934 384.065 293.934 365.633C293.934 347.448 300.324 332.456 313.103 320.66C326.128 308.864 342.471 302.966 362.131 302.966C381.792 302.966 398.012 308.864 410.791 320.66C423.57 332.456 429.96 347.448 429.96 365.633C429.96 384.065 423.57 399.179 410.791 410.975C398.012 422.771 381.792 428.67 362.131 428.67ZM362.131 697.034C342.471 697.034 326.128 691.136 313.103 679.34C300.324 667.544 293.934 652.43 293.934 633.998C293.934 615.812 300.324 600.821 313.103 589.025C326.128 576.983 342.471 570.962 362.131 570.962C381.792 570.962 398.012 576.983 410.791 589.025C423.57 600.821 429.96 615.812 429.96 633.998C429.96 652.43 423.57 667.544 410.791 679.34C398.012 691.136 381.792 697.034 362.131 697.034Z" fill="#519ABA"/>
<path d="M912.5 457.423H553.82V382.59H912.5V457.423ZM912.5 617.409H553.82V542.946H912.5V617.409Z" fill="#519ABA"/>
</svg>
