<svg width="32" height="32" viewBox="0 0 32 32" fill="none" xmlns="http://www.w3.org/2000/svg">
<path d="M5.51035 13.7174C4.88122 13.7174 4.35825 13.5287 3.94145 13.1512C3.53251 12.7737 3.32804 12.2901 3.32804 11.7003C3.32804 11.1183 3.53251 10.6386 3.94145 10.2611C4.35825 9.88365 4.88122 9.69491 5.51035 9.69491C6.13948 9.69491 6.65852 9.88365 7.06745 10.2611C7.47639 10.6386 7.68086 11.1183 7.68086 11.7003C7.68086 12.2901 7.47639 12.7737 7.06745 13.1512C6.65852 13.5287 6.13948 13.7174 5.51035 13.7174ZM5.51035 22.3051C4.88122 22.3051 4.35825 22.1164 3.94145 21.7389C3.53251 21.3614 3.32804 20.8777 3.32804 20.2879C3.32804 19.706 3.53251 19.2263 3.94145 18.8488C4.35825 18.4634 4.88122 18.2708 5.51035 18.2708C6.13948 18.2708 6.65852 18.4634 7.06745 18.8488C7.47639 19.2263 7.68086 19.706 7.68086 20.2879C7.68086 20.8777 7.47639 21.3614 7.06745 21.7389C6.65852 22.1164 6.13948 22.3051 5.51035 22.3051Z" fill="#519ABA"/>
<path d="M12.1162 13.7174C11.4871 13.7174 10.9641 13.5287 10.5473 13.1512C10.1384 12.7737 9.93394 12.2901 9.93394 11.7003C9.93394 11.1183 10.1384 10.6386 10.5473 10.2611C10.9641 9.88365 11.4871 9.69491 12.1162 9.69491C12.7454 9.69491 13.2644 9.88365 13.6734 10.2611C14.0823 10.6386 14.2868 11.1183 14.2868 11.7003C14.2868 12.2901 14.0823 12.7737 13.6734 13.1512C13.2644 13.5287 12.7454 13.7174 12.1162 13.7174ZM12.1162 22.3051C11.4871 22.3051 10.9641 22.1164 10.5473 21.7389C10.1384 21.3614 9.93394 20.8777 9.93394 20.2879C9.93394 19.706 10.1384 19.2263 10.5473 18.8488C10.9641 18.4634 11.4871 18.2708 12.1162 18.2708C12.7454 18.2708 13.2644 18.4634 13.6734 18.8488C14.0823 19.2263 14.2868 19.706 14.2868 20.2879C14.2868 20.8777 14.0823 21.3614 13.6734 21.7389C13.2644 22.1164 12.7454 22.3051 12.1162 22.3051Z" fill="#519ABA"/>
<path d="M29.7281 14.6375H18.2503V12.2429H29.7281V14.6375ZM29.7281 19.7571H18.2503V17.3743H29.7281V19.7571Z" fill="#519ABA"/>
</svg>
